<?xml version="1.0" encoding="UTF-8"?>
<svg id="_圖層_1" data-name="圖層 1" xmlns="http://www.w3.org/2000/svg" viewBox="0 0 768 200">
  <defs>
    <style>
      .cls-1 {
        fill: #003595;
      }

      .cls-2 {
        fill: #ff9e18;
      }

      .cls-3 {
        fill: #fff;
      }
    </style>
  </defs>
  <rect class="cls-3" width="768" height="200"/>
  <g>
    <path class="cls-1" d="M120.7,109.83c4.5-1.86,9.15,2.31,7.79,6.99l-8.33,28.67,102.63-41.91c5.93-2.42,6.19-10.73.42-13.52l-98.36-47.52c-1.89-.91-4.08-.98-6.02-.19l-40.44,16.51c-4.14,1.69-8.83-.65-9.96-4.98l-3.95-15.08c-.94-3.59.93-7.32,4.36-8.72L142.5,0H0v110.75l12.59,48.11c4.62-4.43,9.93-8.15,15.73-10.89l92.38-38.14Z"/>
    <path class="cls-1" d="M768,65.75l-230.35,86.87c-4.19,1.58-6.03,6.48-3.91,10.42l19.83,36.95h143.24l-5.5-10.24c-2.12-3.94-.28-8.85,3.91-10.42l14.59-5.5c3.47-1.31,7.38.16,9.13,3.43l12.2,22.74h36.85V65.75Z"/>
    <path class="cls-2" d="M576.58,78.89s16.05,12.3,40.9,7.19c21.33-4.38,39.52-23.93,43.88-46.45L667.02,0h-101.49c-9.43,12.75-13.95,28.96-11.14,43.8,4.72,24.92,22.19,35.1,22.19,35.1Z"/>
    <path class="cls-2" d="M328.95,199.41c-6.2-22.09-25.94-40.07-47.56-42.68-25.18-3.04-40.16,10.54-40.16,10.54,0,0-14.77,10.33-18.65,32.73h106.5l-.13-.59Z"/>
    <path class="cls-2" d="M120.16,145.49l8.33-28.67c1.36-4.67-3.29-8.84-7.79-6.99l-92.38,38.14c-5.8,2.74-11.12,6.47-15.73,10.89C7.44,163.8,3.15,169.6,0,175.87v24.13h104.33l15.83-54.51Z"/>
  </g>
</svg>