<?xml version="1.0" encoding="UTF-8"?>
<svg id="_圖層_1" data-name="圖層 1" xmlns="http://www.w3.org/2000/svg" viewBox="0 0 1200 300">
  <defs>
    <style>
      .cls-1 {
        fill: #003595;
      }

      .cls-2 {
        fill: #ff9e18;
      }

      .cls-3 {
        fill: #fff;
      }
    </style>
  </defs>
  <rect class="cls-3" x="-1.22" y="0" width="1202.45" height="300"/>
  <g>
    <path class="cls-1" d="M148.43,160.43c4.8-4.6,10.31-8.47,16.34-11.31l95.94-39.61c4.67-1.93,9.5,2.4,8.09,7.26l-8.65,29.78,106.58-43.53c6.16-2.52,6.43-11.14.44-14.04l-102.15-49.35c-1.96-.95-4.23-1.02-6.25-.19l-42,17.15c-4.3,1.76-9.17-.68-10.34-5.17l-4.1-15.66c-.98-3.73.96-7.6,4.53-9.06L272.2,0H106.46l41.97,160.43Z"/>
    <path class="cls-1" d="M6.93,216.05c-2.19-1.87-5.24-2.37-7.9-1.28l-.25.1v85.12h106.24L6.93,216.05Z"/>
    <path class="cls-1" d="M1041.67,204.11c-2.2-4.09-.29-9.19,4.06-10.83l125.81-47.44c4.35-1.64,6.26-6.73,4.06-10.83l-32.59-60.74c-1.82-3.4-5.88-4.92-9.49-3.56l-374.62,141.28c-4.35,1.64-6.26,6.73-4.06,10.83l32.59,60.74c1.82,3.4,5.88,4.92,9.49,3.56l17.03-6.43c3.61-1.36,7.66.16,9.49,3.56l8.45,15.75h107.35l1.16-3.23c.74-2.05.57-4.32-.46-6.24l-21.45-39.97c-2.2-4.09-.29-9.19,4.06-10.83l15.15-5.71c3.61-1.36,7.66.16,9.49,3.56l33.49,62.42h112.44l-51.45-95.89Z"/>
    <path class="cls-1" d="M1201.22,182.76l-.67-1.24c-1.82-3.4-5.88-4.92-9.49-3.56l-91.37,34.5c-4.35,1.64-6.25,6.73-4.06,10.83l27.06,50.44c1.82,3.4,5.88,4.92,9.49,3.56l12.85-4.85c3.61-1.36,7.66.16,9.49,3.56l12.88,24.01h33.81v-117.24Z"/>
    <path class="cls-2" d="M873.82,79.95s16.67,12.77,42.47,7.46c22.15-4.55,41.04-24.85,45.57-48.25L967.47,0h-106.53c-8.82,12.91-12.93,28.85-10.15,43.5,4.9,25.88,23.04,36.45,23.04,36.45Z"/>
    <path class="cls-2" d="M486.96,268.65c-6.44-22.94-26.94-41.61-49.39-44.32-26.15-3.16-41.71,10.94-41.71,10.94,0,0-17.21,12.03-19.96,38.23-.93,8.87.64,18,4.15,26.5h114.08l-7.17-31.35Z"/>
    <path class="cls-2" d="M260.71,109.51l-95.94,39.61c-6.03,2.84-11.54,6.71-16.34,11.31-12.35,11.84-19.93,28.48-19.17,44.75,1.23,26.32,17.71,39.31,17.71,39.31,0,0,14.72,14.98,41.01,13.34,22.57-1.41,44.11-18.86,51.87-41.39l20.3-69.9,8.65-29.78c1.41-4.85-3.42-9.18-8.09-7.26Z"/>
  </g>
</svg>