<?xml version="1.0" encoding="UTF-8"?>
<svg id="_圖層_1" data-name="圖層 1" xmlns="http://www.w3.org/2000/svg" viewBox="0 0 600 200">
  <defs>
    <style>
      .cls-1 {
        fill: #003595;
      }

      .cls-2 {
        fill: #ff9e18;
      }

      .cls-3 {
        fill: #fff;
      }
    </style>
  </defs>
  <rect class="cls-3" y="0" width="600" height="200"/>
  <g>
    <rect class="cls-3" x="0" y="0" width="600" height="200"/>
    <g>
      <polygon class="cls-1" points="0 0 0 23.89 58.5 0 0 0"/>
      <path class="cls-1" d="M44.49,116.81l-8.33,28.67,102.63-41.91c5.93-2.42,6.19-10.73.42-13.52L40.85,42.54c-1.89-.91-4.08-.98-6.02-.19L0,56.57v68.41l36.7-15.15c4.5-1.86,9.15,2.31,7.79,6.99Z"/>
      <path class="cls-1" d="M449.74,163.05l19.83,36.95h130.43v-102.57l-146.35,55.19c-4.19,1.58-6.03,6.48-3.91,10.42Z"/>
      <path class="cls-2" d="M492.58,78.89s16.05,12.3,40.9,7.19c21.33-4.38,39.52-23.93,43.88-46.45l5.67-39.63h-101.49c-9.43,12.75-13.95,28.96-11.14,43.8,4.72,24.92,22.19,35.1,22.19,35.1Z"/>
      <path class="cls-2" d="M244.95,199.42c-6.2-22.09-25.94-40.07-47.56-42.68-25.18-3.04-40.16,10.54-40.16,10.54,0,0-14.77,10.33-18.65,32.73h106.5l-.13-.58Z"/>
      <path class="cls-2" d="M36.16,145.49l8.33-28.67c1.36-4.67-3.29-8.84-7.79-6.99L0,124.98v75.02h20.33l15.83-54.51Z"/>
    </g>
  </g>
</svg>