<?xml version="1.0" encoding="UTF-8"?>
<svg id="_圖層_1" data-name="圖層 1" xmlns="http://www.w3.org/2000/svg" viewBox="0 0 992 250">
  <defs>
    <style>
      .cls-1 {
        fill: #003595;
      }

      .cls-2 {
        fill: #ff9e18;
      }

      .cls-3 {
        fill: #fff;
      }
    </style>
  </defs>
  <rect class="cls-3" width="992" height="250"/>
  <g>
    <path class="cls-1" d="M232.7,109.83c4.5-1.86,9.15,2.31,7.79,6.99l-8.33,28.67,102.63-41.91c5.93-2.42,6.19-10.73.42-13.52l-98.36-47.52c-1.89-.91-4.08-.98-6.02-.19l-40.44,16.51c-4.14,1.69-8.83-.65-9.96-4.98l-3.95-15.08c-.94-3.59.93-7.32,4.36-8.72L254.5,0H83.03l41.56,158.86c4.62-4.43,9.93-8.15,15.73-10.89l92.38-38.14Z"/>
    <path class="cls-1" d="M96.62,247.91L0,165.21v84.79h98.31c-.43-.78-.99-1.49-1.69-2.09Z"/>
    <path class="cls-1" d="M973.89,163.5l18.11,33.75v-49.53l-14.2,5.36c-4.18,1.58-6.02,6.48-3.91,10.42Z"/>
    <path class="cls-1" d="M921.92,145.03c-2.12-3.94-.28-8.85,3.91-10.42l66.17-24.95V23.52l-342.35,129.11c-4.19,1.58-6.03,6.48-3.91,10.42l31.38,58.48c1.76,3.27,5.66,4.74,9.13,3.43l16.4-6.19c3.47-1.31,7.38.15,9.13,3.43l14.92,27.81h92.04l5.66-15.75c.71-1.97.55-4.16-.44-6l-20.65-38.49c-2.12-3.94-.28-8.85,3.91-10.42l14.59-5.5c3.47-1.31,7.38.16,9.13,3.43l39.03,72.74h108.27l-56.32-104.97Z"/>
    <path class="cls-2" d="M688.58,78.89s16.05,12.3,40.9,7.19c21.33-4.38,39.52-23.93,43.88-46.45L779.02,0h-101.49c-9.43,12.75-13.95,28.96-11.14,43.8,4.72,24.92,22.19,35.1,22.19,35.1Z"/>
    <path class="cls-2" d="M440.95,199.41c-6.2-22.09-25.94-40.07-47.56-42.68-25.18-3.04-40.16,10.54-40.16,10.54,0,0-16.57,11.58-19.22,36.81-1.72,16.4,5.4,33.72,17.72,45.92h100.79l-11.57-50.58Z"/>
    <path class="cls-2" d="M212.62,212.79l19.54-67.31,8.33-28.67c1.36-4.67-3.29-8.84-7.79-6.99l-92.38,38.14c-5.8,2.74-11.12,6.47-15.73,10.89-11.89,11.4-19.19,27.43-18.46,43.09,1.18,25.34,17.06,37.86,17.06,37.86,0,0,6.28,6.38,17.95,10.19h34.52c16.61-5.73,31.01-19.91,36.96-37.21Z"/>
  </g>
</svg>