<?xml version="1.0" encoding="UTF-8"?>
<svg id="_圖層_1" data-name="圖層 1" xmlns="http://www.w3.org/2000/svg" viewBox="0 0 768 200">
  <defs>
    <style>
      .cls-1 {
        fill: #003595;
      }

      .cls-2 {
        fill: #ff9e18;
      }

      .cls-3 {
        fill: #231815;
      }

      .cls-4 {
        fill: #fff;
      }
    </style>
  </defs>
  <rect class="cls-4" y="0" width="768" height="200"/>
  <g>
    <path class="cls-1" d="M270.42,125.13c-1.76-3.27-5.66-4.74-9.14-3.42l-87.98,33.22c-3.59,1.35-5.44,5.15-4.57,8.69h122.33l-20.65-38.48Z"/>
    <path class="cls-1" d="M117.43,146.88c-2.12-3.94-.28-8.85,3.91-10.42l121.14-45.68c4.19-1.58,6.03-6.48,3.91-10.42l-31.38-58.49c-1.75-3.27-5.66-4.74-9.13-3.43l-107.42,40.51,9.14,13.85c2.68,4.06-.53,9.42-5.37,8.98l-51.78-4.72L0,96.08v67.53h126.41l-8.98-16.73Z"/>
    <path class="cls-1" d="M606.12,28.38c1.76,3.27,5.66,4.74,9.13,3.43l16.4-6.19c3.47-1.31,7.38.15,9.13,3.43l62.16,115.85c3.03,5.65,11.32,5.04,13.49-.99l36.97-102.79c.71-1.97.55-4.16-.44-6L734.13,0h-143.24l15.23,28.38Z"/>
    <path class="cls-2" d="M614.15,88.45c.69-4.82-4.5-8.3-8.69-5.83l-86.13,50.7c-10.96,7.19-19.29,18.2-23.68,30.3h107.74l10.76-75.16Z"/>
    <path class="cls-2" d="M107.59,72.8l-9.14-13.85L59.55,0H0v72.25c.89.17,1.78.33,2.68.45l47.75,4.35,51.78,4.72c4.85.44,8.05-4.92,5.37-8.98Z"/>
    <path class="cls-2" d="M486.39,35.78s20.18,1.28,37.97-16.8C529.57,13.7,533.48,7.16,536.04,0h-99.28c2.56,7.16,6.47,13.7,11.67,18.98,17.8,18.08,37.97,16.8,37.97,16.8Z"/>
  </g>
  <g>
    <path class="cls-1" d="M390.23,102.12v-25.29c0-.73.64-1.29,1.36-1.19l20.89,2.77c.72.1,1.36-.47,1.36-1.19v-10.8c0-.6-.45-1.11-1.05-1.19l-62.19-8.25c-.72-.1-1.36.47-1.36,1.19v10.8c0,.6.45,1.11,1.05,1.19l2.83.37c.6.08,1.05.59,1.05,1.19v21.39c0,1.04,1.24,1.59,2.01.9l13.21-11.9c.25-.23.4-.55.4-.9v-7.11c0-.73.64-1.29,1.36-1.19l2.52.33c.6.08,1.05.59,1.05,1.19v33.29c0,.45.25.86.65,1.07l18.3,9.48c.35.18.76.18,1.1,0l18.43-9.48c.4-.21.65-.62.65-1.07v-22.25c0-.6-.45-1.11-1.05-1.19l-15.17-2.01c-.72-.1-1.36.47-1.36,1.19v8.97c0,.6.45,1.11,1.05,1.19l2.13.28c.6.08,1.05.59,1.05,1.19v6.16c0,.45-.25.86-.65,1.07l-4.75,2.44c-.35.18-.76.18-1.1,0l-3.1-1.6c-.4-.21-.65-.62-.65-1.07Z"/>
    <path class="cls-2" d="M367.96,106.22c1.1,2.61.58,5.86-1.31,7.77-2.2,2.23-4.68,2.07-4.68,2.07,0,0-2.49.16-4.68-2.07-1.88-1.91-2.41-5.17-1.31-7.77l5.34-11.11c.26-.54,1.03-.54,1.29,0l5.34,11.11Z"/>
    <g>
      <path class="cls-3" d="M350.7,126.65h-2.57c-.16,0-.29-.12-.3-.28-.03-.46-.03-1.03,0-1.49.01-.16.14-.28.3-.28h8.31c.16,0,.29.12.3.28.03.46.03,1.02,0,1.49-.01.16-.14.28-.3.28h-2.57c-.17,0-.3.14-.3.3v6.52c0,.16-.13.29-.29.3-.6.03-1.37.03-1.99,0-.16,0-.29-.14-.29-.3v-6.52c0-.17-.14-.3-.3-.3Z"/>
      <path class="cls-3" d="M364.15,130.21h-3.21c-.17,0-.3.14-.3.3v2.95c0,.16-.13.29-.29.3-.6.03-1.37.03-1.99,0-.16,0-.29-.14-.29-.3v-8.59c0-.16.13-.3.29-.3.62-.03,1.39-.03,1.99,0,.16,0,.29.14.29.3v2.78c0,.17.14.3.3.3h3.21c.17,0,.3-.14.3-.3v-2.78c0-.16.13-.3.29-.3.61-.03,1.39-.03,1.99,0,.16,0,.29.14.29.3v8.59c0,.16-.13.29-.29.3-.6.03-1.37.03-1.99,0-.16,0-.29-.14-.29-.3v-2.95c0-.17-.14-.3-.3-.3Z"/>
      <path class="cls-3" d="M368.98,133.45v-8.55c0-.17.14-.3.3-.3h6.85c.16,0,.29.12.3.28.03.46.03,1.01,0,1.48-.01.16-.14.28-.3.28h-4.29c-.17,0-.3.14-.3.3v.91c0,.17.14.3.3.3h4.15c.16,0,.29.12.3.28.03.46.03,1,0,1.46-.01.16-.14.28-.3.28h-4.15c-.17,0-.3.14-.3.3v.92c0,.17.14.3.3.3h4.29c.16,0,.29.12.3.28.03.46.03,1.02,0,1.49-.01.16-.14.28-.3.28h-6.85c-.17,0-.3-.14-.3-.3Z"/>
      <path class="cls-3" d="M387.77,130.44h-.82c-.16,0-.29-.12-.3-.27-.03-.43-.03-.89,0-1.31.01-.16.15-.27.3-.27h2.95c.17,0,.3.14.3.3v4.41c0,.15-.11.27-.25.3-1.26.22-2.42.33-3.25.33-2.84,0-4.73-.62-4.73-2.55v-4.4c0-1.93,1.89-2.55,4.73-2.55.98,0,1.87.06,3.06.22.14.02.25.14.26.28.03.46.04,1.01,0,1.48-.01.17-.17.3-.34.28-.91-.1-1.75-.14-2.53-.14-1.52,0-2.63.03-2.63.98v3.26c0,.98,1.11,1.02,2.63,1.02.19,0,.4,0,.62-.02.16,0,.29-.14.29-.3v-.73c0-.17-.14-.3-.3-.3Z"/>
      <path class="cls-3" d="M398.83,124.58c.57-.03,1.45-.04,1.96,0,.16,0,.28.14.28.3v6.41c0,1.96-1.8,2.63-4.51,2.63s-4.53-.67-4.53-2.63v-6.41c0-.16.12-.29.28-.3.59-.03,1.43-.03,1.99,0,.16,0,.28.14.28.3v5.86c0,.91.83,1.02,1.97,1.02s1.97-.11,1.97-1.02v-5.86c0-.16.13-.29.29-.3Z"/>
      <path class="cls-3" d="M405.64,129.82l-3.13-4.78c-.13-.2,0-.46.24-.47.64-.02,1.4-.02,1.97.02.1,0,.19.06.24.14l1.79,2.93c.12.19.4.19.52,0l1.82-2.93c.05-.08.14-.14.24-.14.56-.03,1.29-.04,1.91-.02.24,0,.37.27.24.47l-3.17,4.78s-.05.11-.05.17v3.49c0,.16-.13.29-.29.3-.6.03-1.37.03-1.99,0-.16,0-.29-.14-.29-.3v-3.49c0-.06-.02-.12-.05-.17Z"/>
      <path class="cls-3" d="M420.2,131.76c0,1.56-1.6,2.16-4.21,2.16-.96,0-2.23-.05-3.44-.19-.14-.02-.25-.13-.27-.27-.05-.48-.05-1.08,0-1.56.02-.17.17-.29.33-.27,1.34.13,2.44.19,3.34.19.95,0,1.7-.04,1.7-.46v-.38c0-.44-.11-.39-1.64-.74l-1.95-.44c-.98-.23-1.78-.76-1.78-2.28v-.94c0-1.58,1.72-2.16,4.21-2.16,1.09,0,2.05.05,3.36.27.13.02.24.13.25.27.05.46.05,1.03,0,1.5-.02.17-.17.29-.34.27-1.32-.17-2.2-.21-3.19-.21-1.05,0-1.74.03-1.74.46v.3c0,.42.24.5,1.65.83l1.94.47c1.07.26,1.77.64,1.77,2.13v1.06Z"/>
    </g>
  </g>
  <g>
    <g>
      <path class="cls-3" d="M690.22,183.33v-4.36h3.27v-1.69h1.02v1.69h3.27v4.32h-.98v-.46h-2.29v2.92h-1.02v-2.92h-2.29v.49h-.98ZM691.2,179.89v2.04h2.29v-2.04h-2.29ZM696.79,179.89h-2.29v2.04h2.29v-2.04Z"/>
      <path class="cls-3" d="M698.83,179.61v-.88h3.69v-1.41h1.09v1.41h3.55v.88h-1.44c-.35,1.48-1,2.71-1.93,3.69.84.61,1.99,1.08,3.45,1.41-.21.3-.41.61-.6.91-1.52-.47-2.74-1.02-3.66-1.65-.82.59-2.02,1.16-3.59,1.72-.14-.26-.34-.57-.6-.95,1.34-.33,2.48-.81,3.45-1.44-.96-.98-1.62-2.21-1.97-3.69h-1.44ZM702.98,182.66c.87-.77,1.43-1.79,1.69-3.06h-3.38c.3,1.24.87,2.26,1.69,3.06Z"/>
    </g>
    <g>
      <path class="cls-3" d="M551.28,177.92l2.88,7.21h-1.2l-.74-1.93h-3.2l-.74,1.93h-1.2l2.88-7.21h1.3ZM550.65,178.87h-.04l-.21.63s-.39.98-1.09,2.81h2.64c-.7-1.83-1.07-2.77-1.09-2.81,0-.02-.01-.07-.04-.14-.12-.28-.18-.45-.18-.49Z"/>
      <path class="cls-3" d="M558.21,185.12h-3.27v-7.21h3.09c1.52.05,2.33.62,2.43,1.72-.02.91-.52,1.48-1.48,1.69v.04c1.1.19,1.7.76,1.79,1.72,0,1.36-.86,2.04-2.57,2.04ZM557.82,178.76h-1.79v2.21h1.79c.96-.02,1.45-.41,1.48-1.16-.02-.7-.52-1.05-1.48-1.05ZM557.96,181.86h-1.93v2.46h2c1.03,0,1.55-.43,1.55-1.3-.05-.75-.59-1.14-1.62-1.16Z"/>
      <path class="cls-3" d="M565.31,177.81c2.18.14,3.35,1.39,3.52,3.76-.12,2.32-1.3,3.54-3.55,3.66-2.25-.12-3.42-1.34-3.52-3.66.12-2.39,1.3-3.64,3.55-3.76ZM565.24,184.35c1.5-.07,2.29-1,2.36-2.78-.07-1.76-.84-2.7-2.32-2.81-1.48.12-2.26,1.05-2.36,2.81.07,1.73.84,2.66,2.32,2.78Z"/>
      <path class="cls-3" d="M570.06,182.1v-4.18h1.12v4.18c0,1.52.64,2.27,1.93,2.25,1.29,0,1.93-.76,1.93-2.29v-4.15h1.12v4.15c0,2.11-1.03,3.16-3.09,3.16s-3.02-1.04-3.02-3.13Z"/>
      <path class="cls-3" d="M583.17,178.83h-2.46v6.29h-1.09v-6.29h-2.5v-.91h6.05v.91Z"/>
    </g>
    <g>
      <path class="cls-3" d="M617.13,179.96l-1.09.28c-.28-.94-.91-1.43-1.9-1.48-1.38.09-2.12,1.02-2.21,2.78.07,1.76.8,2.7,2.18,2.81,1.12-.02,1.8-.63,2.04-1.83l1.09.32c-.35,1.59-1.39,2.39-3.13,2.39-2.13-.12-3.26-1.34-3.38-3.66.12-2.37,1.25-3.62,3.41-3.76,1.5.05,2.5.76,2.99,2.14Z"/>
      <path class="cls-3" d="M621.67,177.81c2.18.14,3.35,1.39,3.52,3.76-.12,2.32-1.3,3.54-3.55,3.66-2.25-.12-3.42-1.34-3.52-3.66.12-2.39,1.3-3.64,3.55-3.76ZM621.6,184.35c1.5-.07,2.29-1,2.36-2.78-.07-1.76-.84-2.7-2.32-2.81-1.48.12-2.26,1.05-2.36,2.81.07,1.73.84,2.66,2.32,2.78Z"/>
      <path class="cls-3" d="M626.48,177.92h1.3l3.66,5.91h.04v-5.91h1.05v7.21h-1.27l-3.73-5.94v5.94h-1.05v-7.21Z"/>
      <path class="cls-3" d="M639.6,178.83h-2.46v6.29h-1.09v-6.29h-2.5v-.91h6.05v.91Z"/>
      <path class="cls-3" d="M644.03,177.92l2.88,7.21h-1.2l-.74-1.93h-3.2l-.74,1.93h-1.2l2.88-7.21h1.3ZM643.39,178.87h-.04l-.21.63s-.39.98-1.09,2.81h2.64c-.7-1.83-1.07-2.77-1.09-2.81,0-.02-.01-.07-.04-.14-.12-.28-.18-.45-.18-.49Z"/>
      <path class="cls-3" d="M653.8,179.96l-1.09.28c-.28-.94-.91-1.43-1.9-1.48-1.38.09-2.12,1.02-2.21,2.78.07,1.76.8,2.7,2.18,2.81,1.12-.02,1.8-.63,2.04-1.83l1.09.32c-.35,1.59-1.39,2.39-3.13,2.39-2.13-.12-3.26-1.34-3.38-3.66.12-2.37,1.25-3.62,3.41-3.76,1.5.05,2.5.76,2.99,2.14Z"/>
      <path class="cls-3" d="M660.59,178.83h-2.46v6.29h-1.09v-6.29h-2.5v-.91h6.05v.91Z"/>
    </g>
  </g>
</svg>