<?xml version="1.0" encoding="UTF-8"?>
<svg id="_圖層_1" data-name="圖層 1" xmlns="http://www.w3.org/2000/svg" viewBox="0 0 1200 300">
  <defs>
    <style>
      .cls-1 {
        fill: #003595;
      }

      .cls-2 {
        fill: #ff9e18;
      }

      .cls-3 {
        fill: #231815;
      }

      .cls-4 {
        fill: #fff;
      }
    </style>
  </defs>
  <rect class="cls-4" x="0" width="1200" height="300"/>
  <g>
    <path class="cls-1" d="M311.56,175.37c-2.25-4.2-.29-9.42,4.16-11.1l128.99-48.64c4.46-1.68,6.42-6.9,4.16-11.1l-33.42-62.28c-1.87-3.48-6.03-5.04-9.73-3.65l-114.39,43.14,9.73,14.75c2.85,4.33-.56,10.03-5.72,9.56l-55.13-5.03L21.65,183.45c-4.46,1.68-6.42,6.9-4.16,11.1l29.49,54.97h152.52l-14.23-26.52c-2.25-4.2-.29-9.42,4.16-11.1l15.53-5.86c3.7-1.39,7.86.17,9.73,3.65l21.37,39.83h115.28l-39.79-74.15Z"/>
    <path class="cls-1" d="M474.46,152.21c-1.87-3.48-6.03-5.04-9.73-3.65l-93.68,35.37c-4.46,1.68-6.41,6.9-4.16,11.1l27.75,51.71c.62,1.15,1.48,2.08,2.5,2.77h9.55l10.86-4.1c3.7-1.4,7.86.16,9.73,3.65l.24.45h99.16l-52.21-97.31Z"/>
    <path class="cls-1" d="M76.28,0H0v110.77L76.19.15s.06-.1.09-.15Z"/>
    <path class="cls-1" d="M970.45,4.26L981.74,0h-176.21l26.39,49.19c1.87,3.48,6.03,5.04,9.73,3.65l17.46-6.59c3.7-1.4,7.86.16,9.73,3.65l66.19,123.35c3.23,6.01,12.05,5.36,14.36-1.06l39.37-109.46c.76-2.1.58-4.43-.47-6.39l-21.99-40.98c-2.25-4.2-.29-9.42,4.16-11.1Z"/>
    <path class="cls-1" d="M1175.67,39.11c1.87,3.48,6.03,5.04,9.73,3.65l13.17-4.97c.47-.18.95-.31,1.43-.39V0h-45.32l20.98,39.11Z"/>
    <path class="cls-1" d="M1200,117.34l-22.13.33c-2.95.04-5.67-1.56-7.06-4.15L1109.89,0h-115.77c.62.58,1.17,1.26,1.59,2.05l102.98,191.91c1.39,2.59,4.11,4.2,7.06,4.15l94.25-1.37v-79.4Z"/>
    <path class="cls-2" d="M825.39,218.5l15.08-105.35c.73-5.13-4.79-8.83-9.26-6.2l-91.71,53.98c-20.42,13.41-32.31,39.23-28,62.01,2.24,11.85,7.19,20.56,11.98,26.58h86.19c7.81-8.64,13.48-19.46,15.72-31.02Z"/>
    <path class="cls-2" d="M1069.42,225.66s-10.97,7.56-17.11,23.86h106.09c-9.04-18.35-26.85-32.33-46.15-34.79-26.79-3.42-42.84,10.93-42.84,10.93Z"/>
    <path class="cls-2" d="M301.08,96.49l-9.73-14.75L242.47,7.66c-2.01-2.74-4.25-5.29-6.68-7.66h-86.53c-4.36,4.68-6.27,8.38-6.27,8.38,0,0-12.2,17.74-5.41,43.88,5.83,22.44,27.6,40.72,51.8,44.12l50.85,4.64,55.13,5.03c5.16.47,8.58-5.24,5.72-9.56Z"/>
    <path class="cls-2" d="M704.44,57.06s21.48,1.36,40.43-17.89C754.77,29.11,760.31,14.77,760.98,0h-113.09c.67,14.77,6.21,29.11,16.11,39.18,18.95,19.25,40.43,17.89,40.43,17.89Z"/>
  </g>
  <g>
    <path class="cls-1" d="M607.44,128.42v-30.19c0-.87.77-1.54,1.63-1.43l24.94,3.31c.86.11,1.63-.56,1.63-1.43v-12.9c0-.72-.53-1.33-1.25-1.43l-74.26-9.85c-.86-.11-1.63.56-1.63,1.43v12.9c0,.72.53,1.33,1.25,1.43l3.38.45c.72.09,1.25.7,1.25,1.43v25.55c0,1.25,1.48,1.9,2.4,1.07l15.78-14.2c.3-.27.48-.66.48-1.07v-8.49c0-.87.77-1.54,1.63-1.43l3,.4c.71.09,1.25.7,1.25,1.43v39.75c0,.54.3,1.03.78,1.28l21.85,11.32c.41.21.91.21,1.32,0l22.01-11.32c.48-.25.78-.74.78-1.28v-26.57c0-.72-.53-1.33-1.25-1.43l-18.12-2.4c-.86-.11-1.63.56-1.63,1.43v10.71c0,.72.53,1.33,1.25,1.43l2.55.34c.72.09,1.25.7,1.25,1.43v7.36c0,.54-.3,1.03-.78,1.28l-5.67,2.92c-.41.21-.91.21-1.32,0l-3.7-1.92c-.48-.25-.78-.74-.78-1.28Z"/>
    <path class="cls-2" d="M580.85,133.32c1.31,3.11.69,7-1.56,9.28-2.62,2.66-5.59,2.47-5.59,2.47,0,0-2.97.19-5.59-2.47-2.25-2.29-2.87-6.17-1.56-9.28l6.38-13.27c.31-.65,1.23-.65,1.54,0l6.38,13.27Z"/>
    <g>
      <path class="cls-3" d="M560.23,157.7h-3.07c-.19,0-.35-.15-.36-.34-.04-.55-.04-1.22,0-1.78.01-.19.17-.34.36-.34h9.92c.19,0,.35.15.36.34.04.55.04,1.22,0,1.78-.01.19-.17.34-.36.34h-3.07c-.2,0-.36.16-.36.36v7.78c0,.19-.15.35-.34.36-.72.04-1.64.04-2.37,0-.19,0-.34-.17-.34-.36v-7.78c0-.2-.16-.36-.36-.36Z"/>
      <path class="cls-3" d="M576.3,161.96h-3.84c-.2,0-.36.16-.36.36v3.52c0,.19-.15.35-.34.36-.72.04-1.64.04-2.37,0-.19,0-.34-.17-.34-.36v-10.25c0-.19.15-.35.34-.36.74-.04,1.66-.04,2.37,0,.19,0,.34.17.34.36v3.32c0,.2.16.36.36.36h3.84c.2,0,.36-.16.36-.36v-3.32c0-.19.15-.35.34-.36.73-.04,1.65-.04,2.37,0,.19,0,.34.17.34.36v10.26c0,.19-.15.35-.34.36-.72.04-1.63.04-2.37,0-.19,0-.34-.17-.34-.36v-3.52c0-.2-.16-.36-.36-.36Z"/>
      <path class="cls-3" d="M582.07,165.83v-10.21c0-.2.16-.36.36-.36h8.18c.19,0,.35.15.36.34.04.55.04,1.21,0,1.76-.01.19-.17.34-.36.34h-5.12c-.2,0-.36.16-.36.36v1.09c0,.2.16.36.36.36h4.96c.19,0,.35.15.36.34.04.55.04,1.2,0,1.74-.01.19-.17.34-.36.34h-4.96c-.2,0-.36.16-.36.36v1.1c0,.2.16.36.36.36h5.12c.19,0,.35.15.36.34.04.55.04,1.22,0,1.78-.01.19-.17.34-.36.34h-8.18c-.2,0-.36-.16-.36-.36Z"/>
      <path class="cls-3" d="M604.51,162.24h-.97c-.19,0-.35-.14-.36-.33-.04-.51-.04-1.06,0-1.57.01-.19.17-.33.36-.33h3.52c.2,0,.36.16.36.36v5.26c0,.18-.13.33-.3.36-1.5.27-2.89.39-3.88.39-3.39,0-5.65-.74-5.65-3.04v-5.25c0-2.31,2.26-3.04,5.65-3.04,1.17,0,2.23.07,3.65.26.17.02.3.16.32.33.04.55.04,1.21,0,1.77-.01.21-.2.35-.4.33-1.09-.12-2.09-.17-3.03-.17-1.81,0-3.14.03-3.14,1.17v3.89c0,1.17,1.33,1.22,3.14,1.22.22,0,.47,0,.74-.02.19,0,.35-.17.35-.36v-.88c0-.2-.16-.36-.36-.36Z"/>
      <path class="cls-3" d="M617.71,155.23c.69-.04,1.73-.04,2.34,0,.19.01.34.17.34.36v7.66c0,2.34-2.15,3.14-5.38,3.14s-5.41-.8-5.41-3.14v-7.66c0-.19.15-.35.34-.36.7-.04,1.71-.03,2.38,0,.19.01.34.17.34.36v7c0,1.09.99,1.22,2.35,1.22s2.35-.13,2.35-1.22v-7c0-.19.15-.35.34-.36Z"/>
      <path class="cls-3" d="M625.84,161.49l-3.74-5.71c-.15-.24,0-.55.29-.56.76-.03,1.67-.02,2.35.02.12,0,.22.07.28.17l2.14,3.5c.14.23.47.23.62,0l2.17-3.5c.06-.1.17-.16.28-.17.67-.04,1.54-.05,2.28-.02.28,0,.45.33.29.56l-3.78,5.71c-.04.06-.06.13-.06.2v4.16c0,.19-.15.35-.34.36-.72.04-1.64.04-2.37,0-.19,0-.34-.17-.34-.36v-4.16c0-.07-.02-.14-.06-.2Z"/>
      <path class="cls-3" d="M643.23,163.8c0,1.86-1.91,2.58-5.03,2.58-1.14,0-2.67-.06-4.11-.22-.17-.02-.3-.15-.32-.32-.06-.57-.06-1.29,0-1.87.02-.2.2-.34.4-.32,1.6.15,2.91.22,3.99.22,1.14,0,2.03-.05,2.03-.54v-.45c0-.53-.13-.46-1.95-.88l-2.32-.53c-1.17-.27-2.13-.91-2.13-2.72v-1.12c0-1.89,2.05-2.58,5.03-2.58,1.3,0,2.45.06,4.01.32.16.03.28.16.3.32.06.55.06,1.23,0,1.79-.02.2-.21.35-.41.32-1.57-.2-2.62-.26-3.81-.26-1.25,0-2.08.03-2.08.54v.35c0,.5.29.59,1.97.99l2.32.56c1.28.3,2.11.77,2.11,2.55v1.27Z"/>
    </g>
  </g>
  <g>
    <g>
      <path class="cls-3" d="M923.77,270.69c0-.13-.03-.33-.1-.6-.03-.3-.07-.5-.1-.6,1.26-.07,2.94-.23,5.03-.5l.25,1.2c-.17,0-.42.03-.75.1-.47.03-.81.07-1.05.1v1.69h2.69c-.07-1.79-.1-2.99-.1-3.59h1.34c0,.66.03,1.86.1,3.59h4.18v1.24h-4.08l.05.45c.07.93.15,1.69.25,2.29.66-.56,1.36-1.36,2.09-2.39l1.1.85c-1,1.23-1.93,2.21-2.79,2.94.07.07.13.18.2.35.1.17.17.3.2.4.3.53.63.8,1,.8.3,0,.48-.18.55-.55.07-.27.17-.75.3-1.44.03-.13.05-.22.05-.25.43.23.81.41,1.15.55-.1.86-.27,1.53-.5,1.99-.27.73-.76,1.1-1.49,1.1-.93,0-1.68-.5-2.24-1.49l-.3-.6c-.6.43-1.43.91-2.49,1.44-.03-.03-.08-.1-.15-.2-.3-.4-.53-.68-.7-.85,1.1-.53,2.07-1.1,2.94-1.69-.23-.83-.4-1.89-.5-3.19l-.05-.5h-2.79v1.79c.73-.1,1.44-.22,2.14-.35v.45c-.03.37-.03.65,0,.85-.7.1-1.41.2-2.14.3v2.39c.03.96-.4,1.44-1.29,1.44-.33.03-.91.05-1.74.05-.03-.13-.08-.35-.15-.65-.07-.27-.12-.47-.15-.6h1.24c.5.03.73-.18.7-.65v-1.74l-2.19.35-.25-1.34c.73-.07,1.54-.17,2.44-.3v-1.99h-2.39v-1.24h2.39v-1.54c-.17,0-.42.02-.75.05-.53.07-.91.1-1.15.1ZM933.68,271.68c-.7-.7-1.39-1.34-2.09-1.94l.9-.8c.4.3,1.11.91,2.14,1.84l-.95.9Z"/>
      <path class="cls-3" d="M936.32,275.77c-.03-.27-.13-.75-.3-1.44-.03-.13-.05-.23-.05-.3.93-1.59,1.64-3.4,2.14-5.43l1.24.25c-.27.93-.55,1.83-.85,2.69v8.91h-1.2v-6.32c-.3.53-.63,1.08-1,1.64ZM939.7,280.4v-11.35h3.59v5.48h-2.44v5.88h-1.15ZM940.85,270.09v1.29h1.44v-1.29h-1.44ZM940.85,273.53h1.44v-1.29h-1.44v1.29ZM944.28,280.35c-.03-.3-.12-.7-.25-1.2.37.03.9.05,1.59.05.63.03.93-.23.9-.8v-3.88h-2.44v-5.48h3.63v9.66c.03,1.06-.5,1.59-1.59,1.59-.6.03-1.21.05-1.84.05ZM945.08,270.09v1.29h1.44v-1.29h-1.44ZM945.08,272.23v1.29h1.44v-1.29h-1.44Z"/>
    </g>
    <g>
      <path class="cls-3" d="M1115.16,279.6h-7.82v-10.21h7.62v1.29h-6.03v3.04h5.68v1.29h-5.68v3.34h6.22v1.24Z"/>
      <path class="cls-3" d="M1117.15,269.39h1.84l5.18,8.37h.05v-8.37h1.49v10.21h-1.79l-5.28-8.42v8.42h-1.49v-10.21Z"/>
    </g>
    <g>
      <path class="cls-3" d="M1014.93,270.29v-1.1h4.58v1.1h-.65v10.16h-1v-1.89c-.43.03-1.03.12-1.79.25-.46.07-.83.12-1.1.15l-.1-1.24.65-.05v-7.37h-.6ZM1016.58,270.29v1.69h1.29v-1.69h-1.29ZM1016.58,272.98v1.69h1.29v-1.69h-1.29ZM1016.58,277.56l1.29-.2v-1.69h-1.29v1.89ZM1019.52,274.52l-.3-.95c.07,0,.17-.02.3-.05h.25c.3-.4.6-.81.9-1.24-.3-.4-.78-.91-1.44-1.54l.6-.65.25.2c.3-.46.6-1,.9-1.59l.95.35c-.3.56-.71,1.18-1.24,1.84l.6.6c.3-.5.58-.93.85-1.29l.8.5c-.07.1-.18.27-.35.5-.76,1.06-1.34,1.83-1.74,2.29l1.1-.05-.3-.85.7-.25c.3.7.56,1.39.8,2.09l-.75.3-.15-.5c-.37.03-.96.1-1.79.2-.4.03-.7.07-.9.1ZM1019.76,278.51v-3.24h.95v1.59h.95v-.95c.03-.43.05-.78.05-1.05h1.05v1.89c0,1.59-.73,2.85-2.19,3.78-.2-.23-.46-.48-.8-.75,1.06-.67,1.64-1.33,1.74-1.99h-.8v.7h-.95ZM1023.3,274.47l-.25-.95h.3c.13-.03.25-.05.35-.05l.75-1.1c-.5-.56-1-1.08-1.49-1.54l.6-.65c.1.07.2.15.3.25.33-.5.65-1.05.95-1.64l.95.35c-.1.17-.27.43-.5.8-.33.56-.58.95-.75,1.15.23.23.38.4.45.5l1-1.44.8.55c-.23.3-.65.85-1.24,1.64-.37.5-.63.86-.8,1.1l1-.05-.25-.8.75-.25c.4,1,.68,1.69.85,2.09l-.85.25c-.03-.13-.08-.3-.15-.5-.9.1-1.81.2-2.74.3ZM1025.54,278.46v-.65h-.95v2.59h-1.05v-5.53h1.05v1.99h.95v-1.59h1v3.19h-1Z"/>
      <path class="cls-3" d="M1028.03,276.37l-.4-1.15h.75c.1-.13.27-.37.5-.7.33-.5.6-.88.8-1.15l-2.29-1.74.7-.8.45.3c.56-.9,1.08-1.78,1.54-2.64l1.2.45c-.23.33-.56.83-1,1.49-.4.63-.7,1.08-.9,1.34l.9.7c.46-.7.9-1.38,1.29-2.04l1.1.55c-.07.07-.15.18-.25.35-1.26,1.83-2.19,3.1-2.79,3.83l1.54-.05-.45-1.1.9-.3.75,1.79c.17.37.28.63.35.8l-1,.3-.2-.5-.8.05v4.38h-1.1v-4.33l-1.59.15ZM1028.58,280.1l-.95-.2c.03-.1.07-.27.1-.5.2-.93.35-1.71.45-2.34l.85.1c-.07.46-.17,1.11-.3,1.94-.07.43-.12.76-.15,1ZM1031.91,279.55l-.7-2.49.85-.2c.27.76.51,1.56.75,2.39l-.9.3ZM1032.91,275.52c-.2-.5-.38-.88-.55-1.15,1.13-.33,2.06-.7,2.79-1.1-.4-.4-.76-.86-1.1-1.39-.27.33-.55.65-.85.95-.07-.07-.15-.17-.25-.3-.07-.13-.25-.35-.55-.65,1.03-1.03,1.79-2.16,2.29-3.39l1.29.15-.15.3c-.07.2-.2.45-.4.75h3.68v1.15c-.66,1.1-1.29,1.93-1.89,2.49.7.37,1.56.65,2.59.85-.2.5-.35.9-.45,1.2-1.26-.3-2.32-.73-3.19-1.29-.8.53-1.89,1.01-3.29,1.44ZM1033.36,280.45v-4.83h5.58v4.83h-1.2v-.7h-3.19v.7h-1.2ZM1034.55,276.76v1.94h3.19v-1.94h-3.19ZM1034.8,270.79l-.05.15c.4.7.88,1.26,1.44,1.69.63-.5,1.16-1.11,1.59-1.84h-2.99Z"/>
    </g>
  </g>
</svg>