<?xml version="1.0" encoding="UTF-8"?>
<svg id="_圖層_1" data-name="圖層 1" xmlns="http://www.w3.org/2000/svg" viewBox="0 0 992 250">
  <defs>
    <style>
      .cls-1 {
        fill: #003595;
      }

      .cls-2 {
        fill: #ff9e18;
      }

      .cls-3 {
        fill: #231815;
      }

      .cls-4 {
        fill: #fff;
      }
    </style>
  </defs>
  <g>
    <rect class="cls-4" x="0" width="992" height="250"/>
    <g>
      <path class="cls-1" d="M229.43,171.88c-2.12-3.94-.28-8.85,3.91-10.42l121.14-45.68c4.19-1.58,6.03-6.48,3.91-10.42l-31.38-58.49c-1.75-3.27-5.66-4.74-9.13-3.43l-107.42,40.51,9.14,13.85c2.68,4.06-.53,9.42-5.37,8.98l-51.78-4.72L0,163.32v50.29h109.97c-.21-3.14,1.61-6.24,4.77-7.43l14.59-5.5c3.47-1.31,7.38.16,9.13,3.43l5.1,9.5h108.27l-22.39-41.73Z"/>
      <path class="cls-1" d="M382.42,150.13c-1.76-3.27-5.66-4.74-9.14-3.42l-87.98,33.22c-4.18,1.58-6.02,6.48-3.91,10.42l12.48,23.27h122.6l-34.06-63.48Z"/>
      <path class="cls-1" d="M992,31.09L975.32,0h-285.85l28.64,53.38c1.76,3.27,5.66,4.74,9.13,3.43l16.4-6.19c3.47-1.31,7.38.15,9.13,3.43l62.16,115.85c3.03,5.65,11.32,5.04,13.49-.99l36.97-102.79c.71-1.97.55-4.16-.44-6l-20.65-38.49c-2.12-3.94-.28-8.85,3.91-10.42l14.59-5.5c3.47-1.31,7.38.16,9.13,3.43l96.71,180.23c1.31,2.44,3.86,3.94,6.63,3.9l16.72-.24V31.09Z"/>
      <path class="cls-2" d="M711.99,212.38l14.17-98.94c.69-4.82-4.5-8.3-8.69-5.83l-86.13,50.7c-18.31,12.02-29.3,34.66-26.75,55.3h107.14c.09-.41.18-.82.26-1.23Z"/>
      <path class="cls-2" d="M219.59,97.8l-9.14-13.85L164.54,14.38C160.4,8.72,155.19,3.87,149.37,0h-64.1c-10.03,7.09-14.14,15.06-14.14,15.06,0,0-11.46,16.66-5.08,41.21,5.47,21.07,25.92,38.24,48.64,41.44l47.75,4.35,51.78,4.72c4.85.44,8.05-4.92,5.37-8.98Z"/>
      <path class="cls-2" d="M560.42,43.98c17.8,18.08,37.97,16.8,37.97,16.8,0,0,20.18,1.28,37.97-16.8C647.27,32.9,652.54,16.29,651.42,0h-106.05c-1.12,16.29,4.15,32.9,15.05,43.98Z"/>
    </g>
    <g>
      <path class="cls-1" d="M502.23,127.12v-25.29c0-.73.64-1.29,1.36-1.19l20.89,2.77c.72.1,1.36-.47,1.36-1.19v-10.8c0-.6-.45-1.11-1.05-1.19l-62.19-8.25c-.72-.1-1.36.47-1.36,1.19v10.8c0,.6.45,1.11,1.05,1.19l2.83.37c.6.08,1.05.59,1.05,1.19v21.39c0,1.04,1.24,1.59,2.01.9l13.21-11.9c.25-.23.4-.55.4-.9v-7.11c0-.73.64-1.29,1.36-1.19l2.52.33c.6.08,1.05.59,1.05,1.19v33.29c0,.45.25.86.65,1.07l18.3,9.48c.35.18.76.18,1.1,0l18.43-9.48c.4-.21.65-.62.65-1.07v-22.25c0-.6-.45-1.11-1.05-1.19l-15.17-2.01c-.72-.1-1.36.47-1.36,1.19v8.97c0,.6.45,1.11,1.05,1.19l2.13.28c.6.08,1.05.59,1.05,1.19v6.16c0,.45-.25.86-.65,1.07l-4.75,2.44c-.35.18-.76.18-1.1,0l-3.1-1.6c-.4-.21-.65-.62-.65-1.07Z"/>
      <path class="cls-2" d="M479.96,131.22c1.1,2.61.58,5.86-1.31,7.77-2.2,2.23-4.68,2.07-4.68,2.07,0,0-2.49.16-4.68-2.07-1.88-1.91-2.41-5.17-1.31-7.77l5.34-11.11c.26-.54,1.03-.54,1.29,0l5.34,11.11Z"/>
      <g>
        <path class="cls-3" d="M462.7,151.65h-2.57c-.16,0-.29-.12-.3-.28-.03-.46-.03-1.03,0-1.49.01-.16.14-.28.3-.28h8.31c.16,0,.29.12.3.28.03.46.03,1.02,0,1.49-.01.16-.14.28-.3.28h-2.57c-.17,0-.3.14-.3.3v6.52c0,.16-.13.29-.29.3-.6.03-1.37.03-1.99,0-.16,0-.29-.14-.29-.3v-6.52c0-.17-.14-.3-.3-.3Z"/>
        <path class="cls-3" d="M476.15,155.21h-3.21c-.17,0-.3.14-.3.3v2.95c0,.16-.13.29-.29.3-.6.03-1.37.03-1.99,0-.16,0-.29-.14-.29-.3v-8.59c0-.16.13-.3.29-.3.62-.03,1.39-.03,1.99,0,.16,0,.29.14.29.3v2.78c0,.17.14.3.3.3h3.21c.17,0,.3-.14.3-.3v-2.78c0-.16.13-.3.29-.3.61-.03,1.39-.03,1.99,0,.16,0,.29.14.29.3v8.59c0,.16-.13.29-.29.3-.6.03-1.37.03-1.99,0-.16,0-.29-.14-.29-.3v-2.95c0-.17-.14-.3-.3-.3Z"/>
        <path class="cls-3" d="M480.98,158.45v-8.55c0-.17.14-.3.3-.3h6.85c.16,0,.29.12.3.28.03.46.03,1.01,0,1.48-.01.16-.14.28-.3.28h-4.29c-.17,0-.3.14-.3.3v.91c0,.17.14.3.3.3h4.15c.16,0,.29.12.3.28.03.46.03,1,0,1.46-.01.16-.14.28-.3.28h-4.15c-.17,0-.3.14-.3.3v.92c0,.17.14.3.3.3h4.29c.16,0,.29.12.3.28.03.46.03,1.02,0,1.49-.01.16-.14.28-.3.28h-6.85c-.17,0-.3-.14-.3-.3Z"/>
        <path class="cls-3" d="M499.77,155.44h-.82c-.16,0-.29-.12-.3-.27-.03-.43-.03-.89,0-1.31.01-.16.15-.27.3-.27h2.95c.17,0,.3.14.3.3v4.41c0,.15-.11.27-.25.3-1.26.22-2.42.33-3.25.33-2.84,0-4.73-.62-4.73-2.55v-4.4c0-1.93,1.89-2.55,4.73-2.55.98,0,1.87.06,3.06.22.14.02.25.14.26.28.03.46.04,1.01,0,1.48-.01.17-.17.3-.34.28-.91-.1-1.75-.14-2.53-.14-1.52,0-2.63.03-2.63.98v3.26c0,.98,1.11,1.02,2.63,1.02.19,0,.4,0,.62-.02.16,0,.29-.14.29-.3v-.73c0-.17-.14-.3-.3-.3Z"/>
        <path class="cls-3" d="M510.83,149.58c.57-.03,1.45-.04,1.96,0,.16,0,.28.14.28.3v6.41c0,1.96-1.8,2.63-4.51,2.63s-4.53-.67-4.53-2.63v-6.41c0-.16.12-.29.28-.3.59-.03,1.43-.03,1.99,0,.16,0,.28.14.28.3v5.86c0,.91.83,1.02,1.97,1.02s1.97-.11,1.97-1.02v-5.86c0-.16.13-.29.29-.3Z"/>
        <path class="cls-3" d="M517.64,154.82l-3.13-4.78c-.13-.2,0-.46.24-.47.64-.02,1.4-.02,1.97.02.1,0,.19.06.24.14l1.79,2.93c.12.19.4.19.52,0l1.82-2.93c.05-.08.14-.14.24-.14.56-.03,1.29-.04,1.91-.02.24,0,.37.27.24.47l-3.17,4.78s-.05.11-.05.17v3.49c0,.16-.13.29-.29.3-.6.03-1.37.03-1.99,0-.16,0-.29-.14-.29-.3v-3.49c0-.06-.02-.12-.05-.17Z"/>
        <path class="cls-3" d="M532.2,156.76c0,1.56-1.6,2.16-4.21,2.16-.96,0-2.23-.05-3.44-.19-.14-.02-.25-.13-.27-.27-.05-.48-.05-1.08,0-1.56.02-.17.17-.29.33-.27,1.34.13,2.44.19,3.34.19.95,0,1.7-.04,1.7-.46v-.38c0-.44-.11-.39-1.64-.74l-1.95-.44c-.98-.23-1.78-.76-1.78-2.28v-.94c0-1.58,1.72-2.16,4.21-2.16,1.09,0,2.05.05,3.36.27.13.02.24.13.25.27.05.46.05,1.03,0,1.5-.02.17-.17.29-.34.27-1.32-.17-2.2-.21-3.19-.21-1.05,0-1.74.03-1.74.46v.3c0,.42.24.5,1.65.83l1.94.47c1.07.26,1.77.64,1.77,2.13v1.06Z"/>
      </g>
    </g>
  </g>
  <g>
    <g>
      <path class="cls-3" d="M771.99,227.97c0-.11-.03-.28-.08-.51-.03-.25-.06-.42-.08-.51,1.07-.06,2.48-.2,4.25-.42l.21,1.01c-.14,0-.35.03-.63.08-.39.03-.69.06-.88.08v1.43h2.27c-.06-1.52-.08-2.53-.08-3.03h1.14c0,.56.03,1.57.08,3.03h3.54v1.05h-3.45l.04.38c.06.79.13,1.43.21,1.94.56-.48,1.15-1.15,1.77-2.02l.93.72c-.84,1.04-1.63,1.87-2.36,2.48.06.06.11.15.17.29.08.14.14.25.17.34.25.45.53.67.84.67.25,0,.41-.15.46-.46.06-.22.14-.63.25-1.22.03-.11.04-.18.04-.21.36.2.69.35.97.46-.08.73-.23,1.29-.42,1.68-.23.62-.65.93-1.26.93-.79,0-1.42-.42-1.89-1.26l-.25-.51c-.51.36-1.21.77-2.11,1.22-.03-.03-.07-.08-.13-.17-.25-.34-.45-.58-.59-.72.93-.45,1.75-.93,2.48-1.43-.2-.7-.34-1.6-.42-2.69l-.04-.42h-2.36v1.52c.62-.08,1.22-.18,1.81-.29v.38c-.03.31-.03.55,0,.72-.59.08-1.19.17-1.81.25v2.02c.03.81-.34,1.22-1.09,1.22-.28.03-.77.04-1.47.04-.03-.11-.07-.29-.13-.55-.06-.23-.1-.39-.13-.51h1.05c.42.03.62-.15.59-.55v-1.47l-1.85.29-.21-1.14c.62-.06,1.31-.14,2.06-.25v-1.68h-2.02v-1.05h2.02v-1.31c-.14,0-.35.01-.63.04-.45.06-.77.08-.97.08ZM780.37,228.81c-.59-.59-1.18-1.14-1.77-1.64l.76-.67c.34.25.94.77,1.81,1.56l-.8.76Z"/>
      <path class="cls-3" d="M782.6,232.27c-.03-.22-.11-.63-.25-1.22-.03-.11-.04-.2-.04-.25.78-1.35,1.39-2.88,1.81-4.59l1.05.21c-.23.79-.46,1.54-.72,2.27v7.54h-1.01v-5.35c-.25.45-.53.91-.84,1.39ZM785.46,236.18v-9.6h3.03v4.63h-2.06v4.97h-.97ZM786.43,227.47v1.09h1.22v-1.09h-1.22ZM786.43,230.37h1.22v-1.09h-1.22v1.09ZM789.34,236.14c-.03-.25-.1-.59-.21-1.01.31.03.76.04,1.35.04.53.03.78-.2.76-.67v-3.28h-2.06v-4.63h3.07v8.17c.03.9-.42,1.35-1.35,1.35-.51.03-1.03.04-1.56.04ZM790.01,227.47v1.09h1.22v-1.09h-1.22ZM790.01,229.28v1.09h1.22v-1.09h-1.22Z"/>
    </g>
    <g>
      <path class="cls-3" d="M933.83,235.51h-6.61v-8.63h6.44v1.09h-5.09v2.57h4.8v1.09h-4.8v2.82h5.26v1.05Z"/>
      <path class="cls-3" d="M935.51,226.88h1.56l4.38,7.07h.04v-7.07h1.26v8.63h-1.52l-4.46-7.12v7.12h-1.26v-8.63Z"/>
    </g>
    <g>
      <path class="cls-3" d="M849.08,227.63v-.93h3.87v.93h-.55v8.59h-.84v-1.6c-.36.03-.87.1-1.52.21-.39.06-.7.1-.93.13l-.08-1.05.55-.04v-6.23h-.51ZM850.47,227.63v1.43h1.09v-1.43h-1.09ZM850.47,229.91v1.43h1.09v-1.43h-1.09ZM850.47,233.78l1.09-.17v-1.43h-1.09v1.6ZM852.95,231.21l-.25-.8c.06,0,.14-.01.25-.04h.21c.25-.34.51-.69.76-1.05-.25-.34-.66-.77-1.22-1.31l.51-.55.21.17c.25-.39.51-.84.76-1.35l.8.29c-.25.48-.6,1-1.05,1.56l.51.51c.25-.42.49-.79.72-1.09l.67.42c-.06.08-.15.22-.29.42-.65.9-1.14,1.54-1.47,1.94l.93-.04-.25-.72.59-.21c.25.59.48,1.18.67,1.77l-.63.25-.13-.42c-.31.03-.81.08-1.52.17-.34.03-.59.06-.76.08ZM853.16,234.58v-2.74h.8v1.35h.8v-.8c.03-.36.04-.66.04-.88h.88v1.6c0,1.35-.62,2.41-1.85,3.2-.17-.2-.39-.41-.67-.63.9-.56,1.39-1.12,1.47-1.68h-.67v.59h-.8ZM856.15,231.17l-.21-.8h.25c.11-.03.21-.04.29-.04l.63-.93c-.42-.48-.84-.91-1.26-1.31l.51-.55c.08.06.17.13.25.21.28-.42.55-.88.8-1.39l.8.29c-.08.14-.22.36-.42.67-.28.48-.49.8-.63.97.2.2.32.34.38.42l.84-1.22.67.46c-.2.25-.55.72-1.05,1.39-.31.42-.53.73-.67.93l.84-.04-.21-.67.63-.21c.34.84.58,1.43.72,1.77l-.72.21c-.03-.11-.07-.25-.13-.42-.76.08-1.53.17-2.32.25ZM858.04,234.54v-.55h-.8v2.19h-.88v-4.67h.88v1.68h.8v-1.35h.84v2.69h-.84Z"/>
      <path class="cls-3" d="M860.15,232.77l-.34-.97h.63c.08-.11.22-.31.42-.59.28-.42.51-.74.67-.97l-1.94-1.47.59-.67.38.25c.48-.76.91-1.5,1.31-2.23l1.01.38c-.2.28-.48.7-.84,1.26-.34.53-.59.91-.76,1.14l.76.59c.39-.59.76-1.16,1.09-1.73l.93.46c-.06.06-.13.15-.21.29-1.07,1.54-1.85,2.62-2.36,3.24l1.31-.04-.38-.93.76-.25.63,1.52c.14.31.24.53.29.67l-.84.25-.17-.42-.67.04v3.71h-.93v-3.66l-1.35.13ZM860.61,235.93l-.8-.17c.03-.08.06-.23.08-.42.17-.79.29-1.45.38-1.98l.72.08c-.06.39-.14.94-.25,1.64-.06.36-.1.65-.13.84ZM863.43,235.47l-.59-2.11.72-.17c.22.65.44,1.32.63,2.02l-.76.25ZM864.28,232.05c-.17-.42-.32-.74-.46-.97.95-.28,1.74-.59,2.36-.93-.34-.34-.65-.73-.93-1.18-.22.28-.46.55-.72.8-.06-.06-.13-.14-.21-.25-.06-.11-.21-.29-.46-.55.87-.87,1.52-1.82,1.94-2.86l1.09.13-.13.25c-.06.17-.17.38-.34.63h3.12v.97c-.56.93-1.09,1.63-1.6,2.11.59.31,1.32.55,2.19.72-.17.42-.29.76-.38,1.01-1.07-.25-1.96-.62-2.69-1.09-.67.45-1.6.86-2.78,1.22ZM864.65,236.22v-4.08h4.72v4.08h-1.01v-.59h-2.69v.59h-1.01ZM865.67,233.11v1.64h2.69v-1.64h-2.69ZM865.88,228.06l-.04.13c.34.59.74,1.07,1.22,1.43.53-.42.98-.94,1.35-1.56h-2.53Z"/>
    </g>
  </g>
</svg>